<?xml version="1.0" encoding="UTF-8" standalone="no"?>
<svg
   xmlns:dc="http://purl.org/dc/elements/1.1/"
   xmlns:cc="http://creativecommons.org/ns#"
   xmlns:rdf="http://www.w3.org/1999/02/22-rdf-syntax-ns#"
   xmlns:svg="http://www.w3.org/2000/svg"
   xmlns="http://www.w3.org/2000/svg"
   xmlns:sodipodi="http://sodipodi.sourceforge.net/DTD/sodipodi-0.dtd"
   xmlns:inkscape="http://www.inkscape.org/namespaces/inkscape"
   version="1.1"
   width="24"
   height="24"
   viewBox="0 0 24 24"
   id="svg4"
   sodipodi:docname="icon.svg"
   inkscape:export-filename="/home/adrian/Dropbox/IV/SI/MazeSolver/Sprawozdanie/icon.png"
   inkscape:export-xdpi="96"
   inkscape:export-ydpi="96"
   inkscape:version="0.92.1 r15371">
  <metadata
     id="metadata10">
    <rdf:RDF>
      <cc:Work
         rdf:about="">
        <dc:format>image/svg+xml</dc:format>
        <dc:type
           rdf:resource="http://purl.org/dc/dcmitype/StillImage" />
        <dc:title></dc:title>
      </cc:Work>
    </rdf:RDF>
  </metadata>
  <defs
     id="defs8" />
  <sodipodi:namedview
     pagecolor="#ffffff"
     bordercolor="#666666"
     borderopacity="1"
     objecttolerance="10"
     gridtolerance="10"
     guidetolerance="10"
     inkscape:pageopacity="0"
     inkscape:pageshadow="2"
     inkscape:window-width="1920"
     inkscape:window-height="1004"
     id="namedview6"
     showgrid="false"
     inkscape:zoom="27.812867"
     inkscape:cx="8.7430637"
     inkscape:cy="12.089406"
     inkscape:window-x="0"
     inkscape:window-y="0"
     inkscape:window-maximized="1"
     inkscape:current-layer="svg4" />
  <rect
     style="fill:#ffffff;stroke:none;stroke-opacity:1"
     id="rect4510"
     width="24"
     height="24"
     x="0"
     y="0"
     ry="3" />
  <path
     d="M18,6H13A2,2 0 0,0 11,8V10.28C10.41,10.62 10,11.26 10,12A2,2 0 0,0 12,14C13.11,14 14,13.1 14,12C14,11.26 13.6,10.62 13,10.28V8H16V16H8V8H10V6H8L6,6V18H18M20,20H4V4H20M20,2H4A2,2 0 0,0 2,4V20A2,2 0 0,0 4,22H20C21.11,22 22,21.1 22,20V4C22,2.89 21.11,2 20,2Z"
     id="path2"
     style="fill:#0066ff" />
</svg>
